<svg width="28" height="28" viewBox="0 0 28 28" fill="none" xmlns="http://www.w3.org/2000/svg">
<path d="M27.3085 8.50658C27.2461 7.08967 27.0169 6.11557 26.6887 5.27149C26.3501 4.37552 25.8292 3.57336 25.1467 2.90652C24.4798 2.22931 23.6724 1.70308 22.7868 1.36977C21.9378 1.04154 20.9688 0.812406 19.5519 0.749935C18.1244 0.682173 17.6713 0.666504 14.0508 0.666504C10.4303 0.666504 9.9771 0.682173 8.55491 0.744644C7.138 0.807116 6.1639 1.03645 5.32003 1.36448C4.42386 1.70308 3.6217 2.22402 2.95486 2.90652C2.27765 3.57336 1.75163 4.38081 1.41811 5.2664C1.08988 6.11557 0.860746 7.08438 0.798275 8.50129C0.730512 9.92877 0.714844 10.3819 0.714844 14.0024C0.714844 17.6229 0.730512 18.0761 0.792984 19.4983C0.855455 20.9152 1.08479 21.8893 1.41302 22.7334C1.75163 23.6294 2.27765 24.4315 2.95486 25.0984C3.6217 25.7756 4.42915 26.3018 5.31473 26.6351C6.1639 26.9633 7.13271 27.1925 8.54982 27.2549C9.97181 27.3176 10.4252 27.3331 14.0457 27.3331C17.6662 27.3331 18.1193 27.3176 19.5415 27.2549C20.9584 27.1925 21.9325 26.9633 22.7764 26.6351C24.5685 25.9422 25.9854 24.5253 26.6783 22.7334C27.0064 21.8842 27.2357 20.9152 27.2982 19.4983C27.3606 18.0761 27.3763 17.6229 27.3763 14.0024C27.3763 10.3819 27.371 9.92877 27.3085 8.50658ZM24.9072 19.3941C24.8498 20.6965 24.631 21.3997 24.4487 21.8686C24.0006 23.0303 23.0786 23.9523 21.9169 24.4004C21.448 24.5827 20.7397 24.8015 19.4424 24.8586C18.0359 24.9213 17.6141 24.9368 14.0561 24.9368C10.498 24.9368 10.0709 24.9213 8.66947 24.8586C7.36713 24.8015 6.66387 24.5827 6.19503 24.4004C5.61692 24.1867 5.09069 23.8481 4.66357 23.4053C4.22077 22.9729 3.88217 22.452 3.6685 21.8739C3.48617 21.405 3.26742 20.6965 3.21024 19.3994C3.14757 17.9929 3.1321 17.5708 3.1321 14.0128C3.1321 10.4548 3.14757 10.0277 3.21024 8.62643C3.26742 7.32409 3.48617 6.62083 3.6685 6.15199C3.88217 5.57367 4.22077 5.04765 4.66886 4.62032C5.10107 4.17752 5.622 3.83892 6.20032 3.62546C6.66916 3.44313 7.37772 3.22438 8.67476 3.16699C10.0813 3.10452 10.5033 3.08885 14.0611 3.08885C17.6245 3.08885 18.0463 3.10452 19.4477 3.16699C20.7501 3.22438 21.4533 3.44313 21.9222 3.62546C22.5003 3.83892 23.0265 4.17752 23.4536 4.62032C23.8964 5.05274 24.235 5.57367 24.4487 6.15199C24.631 6.62083 24.8498 7.32918 24.9072 8.62643C24.9696 10.033 24.9853 10.4548 24.9853 14.0128C24.9853 17.5708 24.9696 17.9876 24.9072 19.3941Z" fill="black"/>
<path d="M14.0508 7.15214C10.2689 7.15214 7.20046 10.2204 7.20046 14.0025C7.20046 17.7845 10.2689 20.8528 14.0508 20.8528C17.8328 20.8528 20.9011 17.7845 20.9011 14.0025C20.9011 10.2204 17.8328 7.15214 14.0508 7.15214ZM14.0508 18.4461C11.5973 18.4461 9.60714 16.4561 9.60714 14.0025C9.60714 11.5488 11.5973 9.55883 14.0508 9.55883C16.5044 9.55883 18.4944 11.5488 18.4944 14.0025C18.4944 16.4561 16.5044 18.4461 14.0508 18.4461Z" fill="black"/>
<path d="M22.7714 6.8813C22.7714 7.76445 22.0553 8.48054 21.1719 8.48054C20.2888 8.48054 19.5727 7.76445 19.5727 6.8813C19.5727 5.99795 20.2888 5.28207 21.1719 5.28207C22.0553 5.28207 22.7714 5.99795 22.7714 6.8813Z" fill="black"/>
</svg>
