<svg width="28" height="28" viewBox="0 0 28 28" fill="none" xmlns="http://www.w3.org/2000/svg">
<path fill-rule="evenodd" clip-rule="evenodd" d="M6.2675 27.9999H0.4625V9.30611H6.2675V27.9999ZM3.36188 6.75611C1.50563 6.75611 0 5.21861 0 3.36236C2.76672e-08 1.50565 1.50516 0.000488281 3.36188 0.000488281C5.21859 0.000488281 6.72375 1.50565 6.72375 3.36236C6.72375 5.21861 5.2175 6.75611 3.36188 6.75611ZM27.9937 27.9999H22.2013V18.8999C22.2013 16.7311 22.1575 13.9499 19.1831 13.9499C16.165 13.9499 15.7025 16.3061 15.7025 18.7436V27.9999H9.90375V9.30611H15.4712V11.8561H15.5525C16.3275 10.3874 18.2206 8.83736 21.045 8.83736C26.92 8.83736 28 12.7061 28 17.7311V27.9999H27.9937Z" fill="black"/>
</svg>
